<svg width="86" height="86" viewBox="0 0 86 86" fill="none" xmlns="http://www.w3.org/2000/svg">
<g clip-path="url(#clip0)">
<path d="M81.207 8.81706H28.2769C27.5798 8.81706 27.0146 9.38211 27.0146 10.0793C27.0146 10.7764 27.5798 11.3416 28.2769 11.3416H81.207C82.4579 11.3416 83.4756 12.3594 83.4756 13.6102V58.1985H2.5244V13.6101C2.5244 12.3592 3.54212 11.3415 4.79299 11.3415H23.2279C23.925 11.3415 24.4902 10.7762 24.4902 10.0792C24.4902 9.38211 23.925 8.81689 23.2279 8.81689H4.79299C2.15017 8.81706 0 10.9672 0 13.6101V72.3899C0 75.0327 2.15017 77.1829 4.79299 77.1829H18.6585C19.3555 77.1829 19.9208 76.6177 19.9208 75.9206C19.9208 75.2235 19.3555 74.6583 18.6585 74.6583H4.79299C3.54212 74.6583 2.5244 73.6406 2.5244 72.3897V60.7226H83.4754V72.3897C83.4754 73.6406 82.4577 74.6583 81.2068 74.6583H23.7073C23.0102 74.6583 22.445 75.2235 22.445 75.9206C22.445 76.6177 23.0102 77.1829 23.7073 77.1829H81.2068C83.8498 77.1829 85.9998 75.0327 85.9998 72.3899V13.6101C86 10.9672 83.85 8.81706 81.207 8.81706Z" fill="#7A54FF"/>
<path d="M35.5712 72.8329C37.971 72.8329 39.9918 71.1801 40.5559 68.9531H75.3256C76.0228 68.9531 76.5879 68.3879 76.5879 67.6909C76.5879 66.9938 76.0228 66.4286 75.3256 66.4286H40.5559C39.9917 64.2016 37.971 62.5488 35.5712 62.5488C33.1713 62.5488 31.1506 64.2016 30.5864 66.4286H10.6744C9.97732 66.4286 9.41211 66.9938 9.41211 67.6909C9.41211 68.3879 9.97732 68.9531 10.6744 68.9531H30.5864C31.1506 71.1801 33.1713 72.8329 35.5712 72.8329ZM35.5712 65.0732C37.0144 65.0732 38.1887 66.2475 38.1887 67.6909C38.1887 69.1342 37.0144 70.3085 35.5712 70.3085C34.1279 70.3085 32.9536 69.1342 32.9536 67.6909C32.9536 66.2475 34.1279 65.0732 35.5712 65.0732Z" fill="#7A54FF"/>
<path d="M31.1235 28.5569C30.8816 27.969 30.315 27.5894 29.6794 27.5894C29.6789 27.5894 29.6784 27.5894 29.6779 27.5894C29.0418 27.59 28.4751 27.9706 28.2342 28.5595C28.2304 28.5691 28.2267 28.5787 28.223 28.5883L23.2657 41.6042C22.6629 43.1221 25.0547 44.0464 25.6248 42.5026L26.5498 40.074H32.7722L33.6875 42.4991C34.2435 44.04 36.6501 43.1313 36.0495 41.6079L31.1372 28.5915C31.1329 28.5799 31.1282 28.5683 31.1235 28.5569ZM27.5113 37.5496L29.6752 31.8677L31.8195 37.5496H27.5113Z" fill="#7A54FF"/>
<path d="M38.7106 41.8453C38.6768 42.5921 39.2101 43.337 40.0036 43.3157C40.1131 43.3152 42.698 43.3053 43.7293 43.2873C47.3841 43.2233 50.037 40.0106 50.037 35.6478C50.037 31.0614 47.4507 27.98 43.6011 27.98H39.9727C39.6374 27.98 39.3161 28.1133 39.0794 28.3505C38.8426 28.5877 38.7099 28.9094 38.7106 29.2446V29.255V29.2555V41.8453ZM43.6011 30.5044C46.485 30.5044 47.5126 33.1613 47.5126 35.6478C47.5126 38.0793 46.315 40.7172 43.6853 40.7631C43.1322 40.7728 42.0921 40.7802 41.2566 40.7851C41.2516 39.2771 41.2442 36.8125 41.2442 35.6336C41.2442 34.6448 41.24 32.0682 41.2371 30.5044H43.6011Z" fill="#7A54FF"/>
<path d="M57.5822 40.7912C56.1624 40.7912 54.7921 40.2146 53.917 39.2488C53.4487 38.7319 52.6505 38.6931 52.134 39.1611C51.6175 39.6292 51.5782 40.4274 52.0461 40.9441C53.3919 42.4291 55.4615 43.3158 57.5821 43.3158C60.1343 43.3158 62.3582 41.6385 62.7553 39.4142C63.0565 37.7282 62.2712 35.5182 59.1652 34.3725C57.4804 33.751 55.9168 33.0729 55.5061 32.8925C55.1153 32.6019 54.926 32.1407 54.9977 31.6418C55.0894 31.0032 55.5836 30.4894 56.3198 30.2676C58.3902 29.644 60.2679 31.1443 60.3107 31.1792C60.8445 31.6233 61.6372 31.5533 62.0845 31.0212C62.5329 30.4875 62.4641 29.6913 61.9304 29.2427C61.8123 29.1436 58.9997 26.8236 55.5916 27.8506C53.9153 28.3555 52.7303 29.6709 52.4988 31.2832C52.283 32.7867 52.9342 34.2326 54.1983 35.0568C54.2541 35.0931 54.3126 35.125 54.3734 35.1522C54.4493 35.1861 56.2558 35.9903 58.2914 36.7412C59.7085 37.2639 60.4298 38.0765 60.2701 38.9706C60.1107 39.8656 59.0614 40.7912 57.5822 40.7912Z" fill="#7A54FF"/>
<path d="M59.7927 49.3469H67.0458C69.1338 49.3469 70.8325 47.6482 70.8325 45.5602V25.3448C70.8325 23.2568 69.1338 21.5581 67.0458 21.5581H18.9542C16.8661 21.5581 15.1675 23.2568 15.1675 25.3448V45.5602C15.1675 47.6482 16.8661 49.3469 18.9542 49.3469H54.7438C55.441 49.3469 56.0061 48.7816 56.0061 48.0846C56.0061 47.3875 55.441 46.8223 54.7438 46.8223H18.9542C18.2581 46.8223 17.6919 46.2561 17.6919 45.56V25.3448C17.6919 24.6487 18.2581 24.0825 18.9542 24.0825H67.0458C67.7419 24.0825 68.3081 24.6487 68.3081 25.3448V45.5602C68.3081 46.2562 67.7419 46.8225 67.0458 46.8225H59.7927C59.0955 46.8225 58.5305 47.3877 58.5305 48.0847C58.5306 48.7818 59.0957 49.3469 59.7927 49.3469Z" fill="#7A54FF"/>
</g>
<defs>
<clipPath id="clip0">
<rect width="86" height="86" fill="white"/>
</clipPath>
</defs>
</svg>
