<svg width="90" height="22" viewBox="0 0 90 22" fill="none" xmlns="http://www.w3.org/2000/svg">
<path d="M73.4134 6.29115H76.8945L77.9417 18.451H78.2246L79.9511 6.29115H83.6302L85.3283 18.451H85.6114L86.6867 6.29115H89.998L88.2717 21.3018H83.2906L81.8473 10.9456H81.5642L80.1208 21.3018H75.1397L73.4134 6.29115Z" fill="black"/>
<path d="M35.2343 6.29115H31.7533L33.4796 21.3018H38.4607L39.904 10.9456H40.1871L41.6305 21.3018H45.9889L47.4322 10.9456H47.7153L49.1587 21.3018H54.1396L55.8661 6.29115H52.3851L51.3378 18.451H51.0549L49.3284 6.29115H45.6493L43.9512 18.451H43.6681L41.9701 6.29115H38.2909L36.5645 18.451H36.2815L35.2343 6.29115Z" fill="black"/>
<path d="M22.9801 22C21.8481 22 20.8292 21.8254 19.9236 21.4763C19.0178 21.1078 18.2443 20.5843 17.6029 19.9055C16.9802 19.2267 16.4991 18.4024 16.1595 17.4327C15.8199 16.463 15.65 15.3674 15.65 14.1456C15.65 12.9238 15.8199 11.828 16.1595 10.8583C16.4991 9.88865 16.9802 9.06443 17.6029 8.38565C18.2443 7.70688 19.0178 7.19294 19.9236 6.84386C20.8292 6.47538 21.8481 6.29115 22.9801 6.29115C24.1121 6.29115 25.1311 6.47538 26.0367 6.84386C26.9423 7.19294 27.7065 7.70688 28.329 8.38565C28.9706 9.06443 29.4612 9.88865 29.8008 10.8583C30.1404 11.828 30.3102 12.9238 30.3102 14.1456C30.3102 15.3674 30.1404 16.463 29.8008 17.4327C29.4612 18.4024 28.9706 19.2267 28.329 19.9055C27.7065 20.5843 26.9423 21.1078 26.0367 21.4763C25.1311 21.8254 24.1121 22 22.9801 22ZM22.9801 18.8001C23.9235 18.8001 24.6593 18.4994 25.1876 17.8983C25.716 17.297 25.98 16.4438 25.98 15.3382V12.9529C25.98 11.8474 25.716 10.9941 25.1876 10.3929C24.6593 9.79168 23.9235 9.49109 22.9801 9.49109C22.0368 9.49109 21.3009 9.79168 20.7726 10.3929C20.2442 10.9941 19.9801 11.8474 19.9801 12.9529V15.3382C19.9801 16.4438 20.2442 17.297 20.7726 17.8983C21.3009 18.4994 22.0368 18.8001 22.9801 18.8001Z" fill="black"/>
<path d="M64.6403 22C63.5082 22 62.4894 21.8254 61.5838 21.4763C60.678 21.1078 59.9044 20.5843 59.263 19.9055C58.6403 19.2267 58.1593 18.4024 57.8197 17.4327C57.48 16.463 57.3102 15.3674 57.3102 14.1456C57.3102 12.9238 57.48 11.828 57.8197 10.8583C58.1593 9.88865 58.6403 9.06443 59.263 8.38565C59.9044 7.70688 60.678 7.19294 61.5838 6.84386C62.4894 6.47538 63.5082 6.29115 64.6403 6.29115C65.7723 6.29115 66.7913 6.47538 67.6969 6.84386C68.6025 7.19294 69.3667 7.70688 69.9892 8.38565C70.6307 9.06443 71.1214 9.88865 71.461 10.8583C71.8006 11.828 71.9703 12.9238 71.9703 14.1456C71.9703 15.3674 71.8006 16.463 71.461 17.4327C71.1214 18.4024 70.6307 19.2267 69.9892 19.9055C69.3667 20.5843 68.6025 21.1078 67.6969 21.4763C66.7913 21.8254 65.7723 22 64.6403 22ZM64.6403 18.8001C65.5837 18.8001 66.3195 18.4994 66.8478 17.8983C67.3761 17.297 67.6402 16.4438 67.6402 15.3382V12.9529C67.6402 11.8474 67.3761 10.9941 66.8478 10.3929C66.3195 9.79168 65.5837 9.49109 64.6403 9.49109C63.6969 9.49109 62.961 9.79168 62.4327 10.3929C61.9044 10.9941 61.6403 11.8474 61.6403 12.9529V15.3382C61.6403 16.4438 61.9044 17.297 62.4327 17.8983C62.961 18.4994 63.6969 18.8001 64.6403 18.8001Z" fill="black"/>
<path d="M0 0H4.18861V9.25076H4.38673C4.74522 8.35865 5.26407 7.62169 5.94332 7.03989C6.62255 6.45808 7.54706 6.16718 8.71685 6.16718C9.52817 6.16718 10.264 6.32232 10.9244 6.63262C11.6036 6.94292 12.1791 7.41807 12.6508 8.05805C13.1413 8.69804 13.5187 9.51257 13.7828 10.5016C14.0659 11.4907 14.2073 12.664 14.2073 14.0216C14.2073 15.3791 14.0659 16.5525 13.7828 17.5416C13.5187 18.5307 13.1413 19.3452 12.6508 19.9852C12.1791 20.6252 11.6036 21.1002 10.9244 21.4105C10.264 21.7208 9.52817 21.8759 8.71685 21.8759C7.54706 21.8759 6.62255 21.5948 5.94332 21.0324C5.26407 20.4506 4.74522 19.704 4.38673 18.7924H4.18861V21.527H0V0ZM6.90556 18.5307C7.84894 18.5307 8.57535 18.2397 9.08478 17.6579C9.59421 17.0568 9.84891 16.2324 9.84891 15.1853V12.858C9.84891 11.8107 9.59421 10.9962 9.08478 10.4144C8.57535 9.81317 7.84894 9.51257 6.90556 9.51257C6.16973 9.51257 5.52822 9.6968 4.98106 10.0653C4.45276 10.4338 4.18861 11.0156 4.18861 11.8107V16.2324C4.18861 17.0276 4.45276 17.6095 4.98106 17.9778C5.52822 18.3463 6.16973 18.5307 6.90556 18.5307Z" fill="black"/>
</svg>
